PathFileType	4	(X/Y/Z)	Patient4_TMGait_0pt7_02_right_16.trc.trc
DataRate	CameraRate	NumFrames	NumMarkers	Units	OrigDataRate	OrigDataStartFrame	OrigNumFrames
85.365853658537	85.365853658537	4	33	mm	85.365853658537	106	       141
Frame#	Time	Sacral			L.Shoulder			Chest			R.Shoulder			Neck			R.ASIS			L.ASIS			R.Thigh.Superior			R.Thigh.Lateral			R.Thigh.Inferior			R.Patella			L.Thigh.Superior			L.Thigh.Lateral			L.Thigh.Inferior			L.Patella			L.Shank.Superior			L.Shank.Lateral			L.Shank.Inferior			R.Shank.Superior			R.Shank.Lateral			R.Shank.Inferior			R.Heel			R.Midfoot.Superior			R.Midfoot.Lateral			R.Toe			L.Heel			L.Midfoot.Lateral			L.Midfoot.Superior			L.Toe			L.Elbow			L.Wrist			R.Elbow			R.Wrist			
		X1	Y1	Z1	X2	Y2	Z2	X3	Y3	Z3	X4	Y4	Z4	X5	Y5	Z5	X6	Y6	Z6	X7	Y7	Z7	X8	Y8	Z8	X9	Y9	Z9	X10	Y10	Z10	X11	Y11	Z11	X12	Y12	Z12	X13	Y13	Z13	X14	Y14	Z14	X15	Y15	Z15	X16	Y16	Z16	X17	Y17	Z17	X18	Y18	Z18	X19	Y19	Z19	X20	Y20	Z20	X21	Y21	Z21	X22	Y22	Z22	X23	Y23	Z23	X24	Y24	Z24	X25	Y25	Z25	X26	Y26	Z26	X27	Y27	Z27	X28	Y28	Z28	X29	Y29	Z29	X30	Y30	Z30	X31	Y31	Z31	X32	Y32	Z32	X33	Y33	Z33	

106	18.700000000000	789.778952235040	1020.294927738099	439.446732724430	994.298390714521	1436.954559013844	256.730145218054	1089.183839830452	1361.896799314811	420.895147172907	1007.419424806383	1441.854518139656	592.628148548098	993.865496563410	1499.453413339350	411.666402272049	1011.532114877161	949.675656287376	561.955493162593	1005.203074019648	964.104059057822	287.711040998891	1100.798083289181	794.437044058907	532.969297019289	1072.225495896765	671.472660617076	608.845509780051	1165.812652177660	638.707223645141	531.023806113235	1193.590951553761	526.062447845739	553.684320930646	1035.682163383622	747.292434815648	313.810044646662	934.478737911240	640.274900711711	258.594111517242	1011.246986128801	556.064618173622	321.473589996330	1005.433307287611	489.979042679021	333.304962898599	981.723565634997	420.720765529669	325.948240501931	893.473537521665	303.895196389967	277.409179433264	947.705622969730	195.590687321029	351.970794581332	1120.491221435787	446.732708294169	559.007834933399	1000.184384081028	400.735101776795	617.111071139471	992.042527941564	291.546244218928	566.854112535286	794.641471358550	219.555348351960	536.481912479627	967.188109188695	170.556660445696	578.203683012355	855.949208094596	159.987893177169	608.001412693614	1036.670549345856	59.304953827442	598.468787869223	823.198147649393	38.576342681213	401.481438739811	895.900567630470	35.256808829822	318.873472687060	979.048614320484	96.461912214440	343.876858886615	1107.671910316096	44.544038714679	314.443529271624	1059.463898728409	1110.722422670946	108.048809782090	1264.379535669317	951.455680725803	134.417383757721	917.239182557907	1106.569668386695	714.964795754017	968.046411816262	849.874016757406	730.487845863145	
107	18.711714285714	789.214899169534	1020.450470884667	438.931981089030	995.354223334778	1437.371262521382	257.218387982171	1089.239557305586	1361.715685764564	421.625061979797	1006.850561931216	1441.400477130104	593.134907965385	993.851304537588	1499.415710765799	412.293381239058	1010.571586213310	949.803612676643	561.936204048781	1004.847121274532	963.902919583630	287.696962704578	1100.878915654304	796.373567840891	532.874896499454	1073.839366659985	673.204486203417	609.030490609914	1167.363250937679	641.291627194025	530.946322523527	1197.130245279246	530.124328032336	553.908240434961	1032.782267899635	746.182498009331	314.523769168530	930.532868969333	640.273263328321	258.380931296009	1005.804223857230	555.179902250438	321.588565724747	999.175932120976	489.319365986816	333.306108551647	975.212786651409	420.356560433890	325.918020743279	886.484084538494	303.980860681911	277.238519937218	940.033815146343	195.430603917963	351.918658816514	1127.376363771226	448.632955082963	559.682802761206	1009.879679021178	396.798609952178	618.312221516540	1006.992955569666	287.192510264450	568.364569753351	813.370016057758	205.496777781111	538.797678448382	988.272369227711	165.138561938796	580.492097875067	877.622193651539	149.398885140838	610.421099712866	1062.922276688882	57.384741107934	601.236077395059	814.914911384509	38.606026763751	401.429899582018	887.633175548706	35.226983454564	318.842773726039	970.811548728559	96.410150382950	343.854869852474	1099.433238458946	44.433559352846	314.436077393703	1065.273358452328	1113.977919686030	106.528473924600	1278.136096553385	966.569335575855	136.995847804614	910.646224158696	1108.196712369731	715.609075844659	942.996847277729	848.494993771116	736.305864024649	
108	18.723428571429	788.779437921721	1020.481573233516	438.549285345612	996.423887035920	1437.617788730878	257.819758438703	1089.388446114144	1361.406662954608	422.447603888738	1006.404514548299	1440.847984906902	593.744681014473	993.934954247162	1499.240740436409	413.017416166783	1009.719096660380	949.735672824476	562.035456041878	1004.591095387880	963.619694236374	287.790863524065	1100.674400678548	797.660839941822	532.895916222374	1074.772587121128	674.341480829411	609.299495116463	1168.086375003373	643.010170299508	530.947143100436	1199.590497795635	533.538920093473	554.243970855667	1030.052690978912	745.054603511163	315.335952270212	926.786434820782	640.213767395969	258.238506170957	1000.597085730565	554.274364319066	321.752477397871	993.184510909189	488.624250742905	333.326748463622	968.916008389239	419.937030267601	325.927087366373	879.649287406654	304.057805024764	277.089399215384	932.444833246012	195.226122841685	351.885051678585	1133.507131638661	450.043141513476	560.495270088663	1019.395326997057	392.129104788229	619.702459348448	1022.207530435520	282.401688725227	570.064940186276	833.295596745706	190.483537997803	541.250381159640	1010.118912433832	159.474652084387	582.945570138754	900.436643829517	138.314402090834	613.055342837700	1090.124335449429	55.878036913463	604.369493520244	806.653929489938	38.649661012785	401.368401403500	879.371685607727	35.198234100245	318.812873645379	962.591701325756	96.351049952339	343.843011005213	1091.203753479153	44.303947940989	314.433803958018	1070.567817733741	1116.985862520060	105.203903324367	1290.533458435370	981.876866880467	139.956725329115	903.865717935947	1110.097391313290	716.429045443777	919.354947659318	848.944868035711	741.355591322088	
109	18.735142857143	788.473728232871	1020.391448522593	438.304881778517	997.491572048962	1437.681029533281	258.523331010163	1089.627516276292	1360.975048427169	423.355135821140	1006.080921024835	1440.219250722633	594.444348201320	994.123086088783	1498.930859732832	413.818644872185	1008.996063280728	949.472731168664	562.264133889238	1004.436251297807	963.267967338319	287.984877979412	1100.167552274316	798.244846141604	533.040220470220	1074.967342849722	674.829180328130	609.663918371391	1167.945765591483	643.800116277300	531.051674372251	1200.940135329109	536.246215791100	554.682083034147	1027.522437466132	743.908502614518	316.196480411662	923.238329950347	640.096125365494	258.179963306647	995.640978661348	553.345860280253	321.961489927742	987.472346685999	487.888718234358	333.376719641418	962.845670477088	419.460541202767	325.979497467104	872.971656758331	304.129482055957	276.969100697108	924.940467245162	194.977635077938	351.871674131145	1138.827850431162	450.967272754075	561.425498163114	1028.715413407235	386.820323688579	621.266953979715	1037.614707063224	277.341130657394	571.903277885500	854.438592255742	174.820371492241	543.757917584099	1032.636040068598	153.815723054834	585.499591251310	924.341416483950	127.012007181253	615.815131106420	1118.082191082815	55.054711856970	607.751278852101	798.413716225507	38.710820772397	401.295346533675	871.115023524901	35.173540163669	318.783125691098	954.388166505140	96.283990912080	343.840466491042	1082.979477691055	44.153326452573	314.436986960401	1075.407533107675	1119.705956477860	104.075256374952	1301.548965670693	997.197458195371	143.241633403527	896.900668881144	1112.332107368783	717.446439428661	897.361845608663	850.935984777184	745.595719465097	
